<svg width="20" height="20" viewBox="0 0 20 20" fill="none" xmlns="http://www.w3.org/2000/svg">
<g id="back-svgrepo-com 1" clip-path="url(#clip0_54_711)">
<path id="Vector" d="M15.6459 8.66934L9.76008 2.25309C9.28441 1.69238 9.35334 0.852226 9.91404 0.376562C10.4747 -0.099102 11.3149 -0.0301762 11.7906 0.530527L19.6176 9.06293C19.7301 9.17601 19.8214 9.30849 19.8868 9.45398C19.9682 9.63484 20.0081 9.83164 20.0036 10.0299L20.0035 10.0312C19.999 10.229 19.9505 10.4234 19.8616 10.6002C19.853 10.6173 19.844 10.6342 19.8346 10.651C19.7804 10.748 19.7141 10.8378 19.6373 10.9183L11.6022 19.5873C11.1023 20.1266 10.26 20.1586 9.7207 19.6587C9.18145 19.1589 9.14947 18.3165 9.6493 17.7773L15.6232 11.3321L1.35643 11.3321C0.621134 11.3321 0.0250587 10.736 0.0250587 10.0007C0.0250587 9.26539 0.621134 8.66932 1.35643 8.66932L15.6459 8.66932V8.66934Z" fill="white"/>
</g>
<defs>
<clipPath id="clip0_54_711">
<rect width="20" height="20" fill="white" transform="matrix(-1 0 0 -1 20 20)"/>
</clipPath>
</defs>
</svg>
