<svg width="28" height="28" viewBox="0 0 28 28" fill="none" xmlns="http://www.w3.org/2000/svg">
<g clip-path="url(#clip0_10_1259)">
<path d="M16.3337 9.33333H5.44477C5.23849 9.33333 5.04066 9.25139 4.8948 9.10553C4.74894 8.95967 4.66699 8.76184 4.66699 8.55556V5.44445C4.66699 5.23817 4.74894 5.04034 4.8948 4.89447C5.04066 4.74861 5.23849 4.66667 5.44477 4.66667H16.3337C16.5399 4.66667 16.7378 4.74861 16.8836 4.89447C17.0295 5.04034 17.1114 5.23817 17.1114 5.44445V8.55556C17.1114 8.76184 17.0295 8.95967 16.8836 9.10553C16.7378 9.25139 16.5399 9.33333 16.3337 9.33333ZM6.22255 7.77778H15.5559V6.17556H6.22255V7.77778Z" fill="black"/>
<path d="M16.3337 10.9511H5.44477C5.23849 10.9511 5.04066 11.0331 4.8948 11.1789C4.74894 11.3248 4.66699 11.5226 4.66699 11.7289V14.7778C4.66699 14.9841 4.74894 15.1819 4.8948 15.3278C5.04066 15.4736 5.23849 15.5556 5.44477 15.5556H14.2803L17.1114 12.6778V11.7289C17.1114 11.5226 17.0295 11.3248 16.8836 11.1789C16.7378 11.0331 16.5399 10.9511 16.3337 10.9511ZM15.5559 14H6.22255V12.4444H15.5559V14Z" fill="black"/>
<path d="M8.60233 24.5078V24.4611L8.85122 23.38H3.11122V3.11111H18.6668V11.0833L20.2223 9.61333V2.33333C20.2223 2.12705 20.1404 1.92922 19.9945 1.78336C19.8487 1.6375 19.6508 1.55556 19.4446 1.55556H2.33344C2.12716 1.55556 1.92933 1.6375 1.78347 1.78336C1.63761 1.92922 1.55566 2.12705 1.55566 2.33333V24.1111C1.55566 24.3174 1.63761 24.5152 1.78347 24.6611C1.92933 24.8069 2.12716 24.8889 2.33344 24.8889H8.55566C8.56207 24.7609 8.57767 24.6335 8.60233 24.5078Z" fill="black"/>
<path d="M17.1115 14.91L16.5049 15.5244C16.6554 15.4934 16.7933 15.4185 16.9013 15.3091C17.0093 15.1998 17.0824 15.0609 17.1115 14.91Z" fill="black"/>
<path d="M4.66699 20.9533C4.66699 21.1596 4.74894 21.3574 4.8948 21.5033C5.04066 21.6492 5.23849 21.7311 5.44477 21.7311H9.20921L9.44255 20.72L9.54366 20.2922V20.2533H6.22255V18.6667H11.1537L12.7092 17.1111H5.44477C5.23849 17.1111 5.04066 17.1931 4.8948 17.3389C4.74894 17.4848 4.66699 17.6826 4.66699 17.8889V20.9533Z" fill="black"/>
<path d="M26.0478 12.9656L23.4267 10.3444C23.3104 10.2278 23.1722 10.1353 23.0201 10.0721C22.8679 10.009 22.7048 9.97646 22.5401 9.97646C22.3753 9.97646 22.2122 10.009 22.0601 10.0721C21.9079 10.1353 21.7697 10.2278 21.6534 10.3444L10.9901 21.07L10.1112 24.8111C10.0783 24.9725 10.0775 25.1388 10.109 25.3005C10.1405 25.4622 10.2035 25.6161 10.2946 25.7533C10.3856 25.8906 10.5028 26.0086 10.6395 26.1005C10.7762 26.1924 10.9297 26.2564 11.0912 26.2889C11.1713 26.2969 11.2521 26.2969 11.3323 26.2889C11.4276 26.3044 11.5248 26.3044 11.6201 26.2889L15.3923 25.4567L26.0478 14.7778C26.1642 14.6621 26.2566 14.5246 26.3197 14.3731C26.3827 14.2216 26.4152 14.0591 26.4152 13.895C26.4152 13.7309 26.3827 13.5684 26.3197 13.4169C26.2566 13.2654 26.1642 13.1279 26.0478 13.0122V12.9656ZM14.599 24.0411L11.7523 24.6711L12.4445 21.8478L20.4401 13.7667L22.6334 15.96L14.599 24.0411ZM23.5123 15.0811L21.319 12.8878L22.5556 11.6667L24.7645 13.8756L23.5123 15.0811Z" fill="black"/>
</g>
<defs>
<clipPath id="clip0_10_1259">
<rect width="28" height="28" fill="white"/>
</clipPath>
</defs>
</svg>
