<svg width="28" height="28" viewBox="0 0 28 28" fill="none" xmlns="http://www.w3.org/2000/svg">
<path d="M23.167 24H1.16699V22H3.56699C1.96699 17 5.16699 15 7.26699 13.6C8.16699 13 9.06699 12.5 9.06699 12C9.06699 11.5 8.16699 10.9 7.26699 10.4C5.16699 9 1.96699 7.1 3.56699 2H1.16699V0H23.167V2H20.767C22.367 7 19.167 9 17.067 10.4C16.067 10.9 15.167 11.5 15.167 12C15.167 12.5 16.067 13.1 16.967 13.6C19.067 15 22.267 17 20.667 22H23.167V24ZM5.76699 22H18.567C20.167 18 18.067 16.7 15.967 15.3C14.567 14.5 13.167 13.6 13.167 12C13.167 10.4 14.567 9.5 15.967 8.7C18.067 7.3 20.167 6 18.567 2H5.76699C4.16699 6 6.26699 7.3 8.36699 8.7C9.76699 9.5 11.167 10.4 11.167 12C11.167 13.6 9.76699 14.5 8.36699 15.3C6.26699 16.7 4.16699 18 5.76699 22Z" fill="black"/>
<path d="M16.9666 23H7.16664C6.86664 21.5 7.36664 20.6 9.46664 18.7C10.2666 18 11.2666 17.2 12.1666 15.9C13.1666 17.1 14.1666 18 14.8666 18.7C16.9666 20.7 17.4666 21 16.9666 23Z" fill="black"/>
<path d="M9.5675 6C8.8675 7.3 8.86751 7.3 10.4675 8.1C10.9675 8.3 11.5675 8.6 12.0675 9C12.5675 8.6 13.2675 8.3 13.6675 8.1C15.3675 7.3 15.3675 7.3 14.6675 6" fill="black"/>
</svg>
