<svg width="28" height="28" viewBox="0 0 28 28" fill="none" xmlns="http://www.w3.org/2000/svg">
<path d="M14 0.875C6.76288 0.875 0.875 6.76288 0.875 14C0.875 21.2371 6.76288 27.125 14 27.125C21.2371 27.125 27.125 21.2371 27.125 14C27.125 6.76288 21.2371 0.875 14 0.875ZM14 25.375C7.728 25.375 2.625 20.272 2.625 14C2.625 7.728 7.728 2.625 14 2.625C20.272 2.625 25.375 7.728 25.375 14C25.375 20.272 20.272 25.375 14 25.375Z" fill="black"/>
<path d="M20.4021 8.98625L11.6486 17.1762L7.59821 13.3857C7.24559 13.0559 6.69259 13.0742 6.36184 13.4269C6.03196 13.7795 6.05034 14.3334 6.40296 14.6632L11.0518 19.0129C11.2198 19.1704 11.4351 19.2491 11.6495 19.2491C11.8638 19.2491 12.0791 19.1704 12.2471 19.0129L21.5991 10.2629C21.9517 9.933 21.9701 9.37912 21.6402 9.0265C21.3086 8.67387 20.7538 8.6555 20.4021 8.98625Z" fill="black"/>
</svg>
