<svg width="28" height="28" viewBox="0 0 28 28" fill="none" xmlns="http://www.w3.org/2000/svg">
<g clip-path="url(#clip0_10_1485)">
<path fill-rule="evenodd" clip-rule="evenodd" d="M14 28C11.2311 28 8.52426 27.1789 6.22198 25.6406C3.91969 24.1022 2.12531 21.9157 1.06569 19.3576C0.0060594 16.7994 -0.271178 13.9845 0.269015 11.2687C0.809208 8.553 2.14255 6.05844 4.10049 4.1005C6.05842 2.14257 8.55301 0.809198 11.2687 0.269005C13.9845 -0.271188 16.7994 0.00605837 19.3576 1.06569C21.9157 2.12531 24.1023 3.91973 25.6406 6.22202C27.1789 8.52431 28 11.2311 28 14C28 17.713 26.525 21.274 23.8995 23.8995C21.274 26.525 17.713 28 14 28ZM14 2.33333C11.6925 2.33333 9.43688 3.01757 7.51831 4.29952C5.59974 5.58147 4.10445 7.40355 3.22143 9.53536C2.3384 11.6672 2.10733 14.0129 2.55749 16.2761C3.00765 18.5392 4.11883 20.618 5.75044 22.2496C7.38205 23.8812 9.4608 24.9923 11.7239 25.4425C13.987 25.8927 16.3328 25.6616 18.4646 24.7786C20.5964 23.8956 22.4185 22.4002 23.7005 20.4817C24.9824 18.5631 25.6667 16.3074 25.6667 14C25.6667 10.9058 24.4375 7.93835 22.2495 5.75042C20.0616 3.5625 17.0942 2.33333 14 2.33333ZM19.4903 19.4903C19.3873 19.5934 19.265 19.6751 19.1304 19.7309C18.9957 19.7866 18.8515 19.8153 18.7057 19.8153C18.56 19.8153 18.4158 19.7866 18.2811 19.7309C18.1465 19.6751 18.0242 19.5934 17.9212 19.4903L13.9825 15.5517L10.0438 19.4903C9.94218 19.5981 9.81991 19.6844 9.68431 19.7441C9.5487 19.8037 9.40249 19.8356 9.25436 19.8377C9.10622 19.8399 8.95918 19.8122 8.82191 19.7565C8.68464 19.7008 8.55991 19.6181 8.45519 19.5133C8.35047 19.4085 8.26786 19.2837 8.21223 19.1464C8.1566 19.0091 8.12909 18.862 8.13134 18.7139C8.13359 18.5657 8.16556 18.4195 8.22533 18.284C8.28511 18.1484 8.37148 18.0262 8.47933 17.9247L12.418 13.986L8.47933 10.0473C8.37148 9.94576 8.28511 9.82357 8.22533 9.68801C8.16556 9.55245 8.13359 9.40627 8.13134 9.25813C8.12909 9.10999 8.1566 8.96291 8.21223 8.8256C8.26786 8.68828 8.35047 8.56353 8.45519 8.45873C8.55991 8.35393 8.68464 8.27121 8.82191 8.21548C8.95918 8.15975 9.10622 8.13214 9.25436 8.13428C9.40249 8.13641 9.5487 8.16826 9.68431 8.22793C9.81991 8.2876 9.94218 8.37388 10.0438 8.48166L13.9825 12.4203L17.9212 8.48166C18.0236 8.37691 18.1457 8.29351 18.2805 8.2363C18.4153 8.17908 18.5601 8.14919 18.7066 8.14835C18.8531 8.14751 18.9982 8.17573 19.1337 8.23139C19.2692 8.28706 19.3923 8.36905 19.4959 8.47262C19.5994 8.57619 19.6815 8.69927 19.7371 8.83475C19.7928 8.97022 19.821 9.1154 19.8201 9.26187C19.8193 9.40833 19.7894 9.55317 19.7322 9.688C19.675 9.82283 19.5916 9.94496 19.4868 10.0473L15.5482 13.986L19.4868 17.9247C19.6946 18.132 19.8117 18.4133 19.8123 18.7068C19.813 19.0003 19.6972 19.2821 19.4903 19.4903Z" fill="black"/>
</g>
<defs>
<clipPath id="clip0_10_1485">
<rect width="28" height="28" fill="white"/>
</clipPath>
</defs>
</svg>
