<svg width="320" height="320" viewBox="0 0 320 320" fill="none" xmlns="http://www.w3.org/2000/svg">
<circle cx="160" cy="160" r="131.429" fill="#2C19B2"/>
<path d="M105.36 191.64C100.4 191.64 96.16 190.547 92.64 188.36C89.12 186.173 86.4267 183.027 84.56 178.92C82.7467 174.76 81.84 169.693 81.84 163.72C81.84 157.373 82.96 152.013 85.2 147.64C87.44 143.267 90.56 139.96 94.56 137.72C98.56 135.48 103.147 134.36 108.32 134.36C110.987 134.36 113.52 134.627 115.92 135.16C118.373 135.693 120.48 136.52 122.24 137.64L119.2 143.88C117.76 142.867 116.107 142.173 114.24 141.8C112.427 141.427 110.507 141.24 108.48 141.24C102.773 141.24 98.24 143.027 94.88 146.6C91.52 150.12 89.84 155.373 89.84 162.36C89.84 163.48 89.8933 164.813 90 166.36C90.1067 167.907 90.3733 169.427 90.8 170.92L88.08 168.2C88.88 165.747 90.1333 163.693 91.84 162.04C93.6 160.333 95.68 159.08 98.08 158.28C100.533 157.427 103.173 157 106 157C109.733 157 113.04 157.693 115.92 159.08C118.8 160.467 121.067 162.44 122.72 165C124.373 167.507 125.2 170.493 125.2 173.96C125.2 177.533 124.32 180.653 122.56 183.32C120.8 185.987 118.427 188.04 115.44 189.48C112.453 190.92 109.093 191.64 105.36 191.64ZM105.04 185.16C107.493 185.16 109.627 184.707 111.44 183.8C113.307 182.893 114.773 181.64 115.84 180.04C116.907 178.387 117.44 176.467 117.44 174.28C117.44 170.973 116.293 168.36 114 166.44C111.707 164.467 108.587 163.48 104.64 163.48C102.08 163.48 99.84 163.96 97.92 164.92C96 165.88 94.48 167.187 93.36 168.84C92.2933 170.44 91.76 172.28 91.76 174.36C91.76 176.28 92.2667 178.067 93.28 179.72C94.2933 181.32 95.7867 182.627 97.76 183.64C99.7333 184.653 102.16 185.16 105.04 185.16ZM149.295 191.64C145.348 191.64 141.508 191.027 137.775 189.8C134.095 188.573 131.082 186.92 128.735 184.84L132.415 178.52C134.282 180.28 136.708 181.72 139.695 182.84C142.682 183.96 145.855 184.52 149.215 184.52C153.482 184.52 156.762 183.613 159.055 181.8C161.348 179.987 162.495 177.56 162.495 174.52C162.495 172.44 161.988 170.627 160.975 169.08C159.962 167.533 158.202 166.36 155.695 165.56C153.242 164.707 149.855 164.28 145.535 164.28H132.815L135.775 135H167.375V141.96H138.735L142.895 138.04L140.575 161.16L136.415 157.32H147.215C152.815 157.32 157.322 158.04 160.735 159.48C164.148 160.92 166.628 162.92 168.175 165.48C169.722 167.987 170.495 170.893 170.495 174.2C170.495 177.4 169.722 180.333 168.175 183C166.628 185.613 164.282 187.72 161.135 189.32C158.042 190.867 154.095 191.64 149.295 191.64ZM184.051 191L222.291 135H228.451L190.211 191H184.051ZM188.531 165.08C185.971 165.08 183.705 164.44 181.731 163.16C179.758 161.88 178.211 160.093 177.091 157.8C176.025 155.507 175.491 152.84 175.491 149.8C175.491 146.76 176.025 144.093 177.091 141.8C178.211 139.507 179.758 137.72 181.731 136.44C183.705 135.16 185.971 134.52 188.531 134.52C191.145 134.52 193.411 135.16 195.331 136.44C197.305 137.72 198.825 139.507 199.891 141.8C200.958 144.093 201.491 146.76 201.491 149.8C201.491 152.84 200.958 155.507 199.891 157.8C198.825 160.093 197.305 161.88 195.331 163.16C193.411 164.44 191.145 165.08 188.531 165.08ZM188.531 160.52C190.985 160.52 192.905 159.587 194.291 157.72C195.678 155.8 196.371 153.16 196.371 149.8C196.371 146.44 195.678 143.827 194.291 141.96C192.905 140.04 190.985 139.08 188.531 139.08C186.131 139.08 184.211 140.04 182.771 141.96C181.385 143.827 180.691 146.44 180.691 149.8C180.691 153.107 181.385 155.72 182.771 157.64C184.211 159.56 186.131 160.52 188.531 160.52ZM223.971 191.48C221.411 191.48 219.145 190.84 217.171 189.56C215.198 188.28 213.678 186.493 212.611 184.2C211.545 181.907 211.011 179.24 211.011 176.2C211.011 173.16 211.545 170.493 212.611 168.2C213.678 165.907 215.198 164.12 217.171 162.84C219.145 161.56 221.411 160.92 223.971 160.92C226.585 160.92 228.851 161.56 230.771 162.84C232.745 164.12 234.265 165.907 235.331 168.2C236.451 170.493 237.011 173.16 237.011 176.2C237.011 179.24 236.451 181.907 235.331 184.2C234.265 186.493 232.745 188.28 230.771 189.56C228.851 190.84 226.585 191.48 223.971 191.48ZM223.971 186.92C226.371 186.92 228.265 185.987 229.651 184.12C231.091 182.2 231.811 179.56 231.811 176.2C231.811 172.893 231.091 170.28 229.651 168.36C228.265 166.44 226.371 165.48 223.971 165.48C221.571 165.48 219.651 166.44 218.211 168.36C216.825 170.227 216.131 172.84 216.131 176.2C216.131 179.56 216.825 182.2 218.211 184.12C219.651 185.987 221.571 186.92 223.971 186.92Z" fill="white"/>
<mask id="path-3-inside-1_16_278" fill="white">
<path d="M273.137 273.137C290.907 255.367 304.241 233.662 312.059 209.779C319.878 185.896 321.961 160.507 318.139 135.669C314.318 110.831 304.699 87.2429 290.063 66.8147C275.427 46.3865 256.185 29.693 233.896 18.0867C211.607 6.48033 186.897 0.287469 161.768 0.00976933C136.639 -0.267931 111.799 5.37734 89.2583 16.4883C66.7179 27.5992 47.1116 43.8633 32.0277 63.9631C16.9438 84.0629 6.80653 107.433 2.43709 132.18L17.5225 134.844C21.4736 112.466 30.6403 91.3332 44.28 73.1579C57.9197 54.9825 75.6489 40.2755 96.0313 30.2284C116.414 20.1812 138.876 15.0764 161.599 15.3276C184.322 15.5787 206.666 21.1786 226.821 31.6738C246.976 42.1689 264.376 57.2641 277.611 75.7364C290.846 94.2088 299.543 115.539 302.999 137.999C306.454 160.459 304.571 183.417 297.501 205.013C290.431 226.609 278.374 246.237 262.305 262.305L273.137 273.137Z"/>
</mask>
<path d="M273.137 273.137C290.907 255.367 304.241 233.662 312.059 209.779C319.878 185.896 321.961 160.507 318.139 135.669C314.318 110.831 304.699 87.2429 290.063 66.8147C275.427 46.3865 256.185 29.693 233.896 18.0867C211.607 6.48033 186.897 0.287469 161.768 0.00976933C136.639 -0.267931 111.799 5.37734 89.2583 16.4883C66.7179 27.5992 47.1116 43.8633 32.0277 63.9631C16.9438 84.0629 6.80653 107.433 2.43709 132.18L17.5225 134.844C21.4736 112.466 30.6403 91.3332 44.28 73.1579C57.9197 54.9825 75.6489 40.2755 96.0313 30.2284C116.414 20.1812 138.876 15.0764 161.599 15.3276C184.322 15.5787 206.666 21.1786 226.821 31.6738C246.976 42.1689 264.376 57.2641 277.611 75.7364C290.846 94.2088 299.543 115.539 302.999 137.999C306.454 160.459 304.571 183.417 297.501 205.013C290.431 226.609 278.374 246.237 262.305 262.305L273.137 273.137Z" stroke="#EA7089" stroke-width="24" mask="url(#path-3-inside-1_16_278)"/>
</svg>
