<svg width="28" height="28" viewBox="0 0 28 28" fill="none" xmlns="http://www.w3.org/2000/svg">
<path d="M10.6667 21.7778V19.5556H24V21.7778H10.6667ZM10.6667 15.1111V12.8889H24V15.1111H10.6667ZM10.6667 8.44445V6.22223H24V8.44445H10.6667ZM6.22222 22.8889C5.61111 22.8889 5.08796 22.6713 4.65278 22.2361C4.21759 21.8009 4 21.2778 4 20.6667C4 20.0556 4.21759 19.5324 4.65278 19.0972C5.08796 18.662 5.61111 18.4444 6.22222 18.4444C6.83333 18.4444 7.35648 18.662 7.79167 19.0972C8.22685 19.5324 8.44444 20.0556 8.44444 20.6667C8.44444 21.2778 8.22685 21.8009 7.79167 22.2361C7.35648 22.6713 6.83333 22.8889 6.22222 22.8889ZM6.22222 16.2222C5.61111 16.2222 5.08796 16.0046 4.65278 15.5694C4.21759 15.1343 4 14.6111 4 14C4 13.3889 4.21759 12.8657 4.65278 12.4306C5.08796 11.9954 5.61111 11.7778 6.22222 11.7778C6.83333 11.7778 7.35648 11.9954 7.79167 12.4306C8.22685 12.8657 8.44444 13.3889 8.44444 14C8.44444 14.6111 8.22685 15.1343 7.79167 15.5694C7.35648 16.0046 6.83333 16.2222 6.22222 16.2222ZM6.22222 9.55556C5.61111 9.55556 5.08796 9.33797 4.65278 8.90278C4.21759 8.4676 4 7.94445 4 7.33334C4 6.72223 4.21759 6.19908 4.65278 5.76389C5.08796 5.32871 5.61111 5.11111 6.22222 5.11111C6.83333 5.11111 7.35648 5.32871 7.79167 5.76389C8.22685 6.19908 8.44444 6.72223 8.44444 7.33334C8.44444 7.94445 8.22685 8.4676 7.79167 8.90278C7.35648 9.33797 6.83333 9.55556 6.22222 9.55556Z" fill="black"/>
</svg>
