<svg width="20" height="18" viewBox="0 0 20 18" fill="none" xmlns="http://www.w3.org/2000/svg">
<path d="M6.66667 16.7778V14.5556H20V16.7778H6.66667ZM6.66667 10.1111V7.88889H20V10.1111H6.66667ZM6.66667 3.44445V1.22223H20V3.44445H6.66667ZM2.22222 17.8889C1.61111 17.8889 1.08796 17.6713 0.652778 17.2361C0.217593 16.8009 0 16.2778 0 15.6667C0 15.0556 0.217593 14.5324 0.652778 14.0972C1.08796 13.662 1.61111 13.4444 2.22222 13.4444C2.83333 13.4444 3.35648 13.662 3.79167 14.0972C4.22685 14.5324 4.44444 15.0556 4.44444 15.6667C4.44444 16.2778 4.22685 16.8009 3.79167 17.2361C3.35648 17.6713 2.83333 17.8889 2.22222 17.8889ZM2.22222 11.2222C1.61111 11.2222 1.08796 11.0046 0.652778 10.5694C0.217593 10.1343 0 9.61111 0 9C0 8.38889 0.217593 7.86574 0.652778 7.43056C1.08796 6.99537 1.61111 6.77778 2.22222 6.77778C2.83333 6.77778 3.35648 6.99537 3.79167 7.43056C4.22685 7.86574 4.44444 8.38889 4.44444 9C4.44444 9.61111 4.22685 10.1343 3.79167 10.5694C3.35648 11.0046 2.83333 11.2222 2.22222 11.2222ZM2.22222 4.55556C1.61111 4.55556 1.08796 4.33797 0.652778 3.90278C0.217593 3.4676 0 2.94445 0 2.33334C0 1.72223 0.217593 1.19908 0.652778 0.763892C1.08796 0.328707 1.61111 0.111115 2.22222 0.111115C2.83333 0.111115 3.35648 0.328707 3.79167 0.763892C4.22685 1.19908 4.44444 1.72223 4.44444 2.33334C4.44444 2.94445 4.22685 3.4676 3.79167 3.90278C3.35648 4.33797 2.83333 4.55556 2.22222 4.55556Z" fill="white"/>
</svg>
