<svg width="28" height="28" viewBox="0 0 28 28" fill="none" xmlns="http://www.w3.org/2000/svg">
<path d="M14 6.41667C17.2217 6.41667 19.8334 9.02834 19.8334 12.25V14.8629C19.8334 15.4343 20.0431 15.9859 20.4227 16.413L21.9109 18.0874C22.9142 19.2159 22.113 21 20.603 21H7.39698C5.887 21 5.08583 19.2159 6.089 18.0874L7.57729 16.413C7.95694 15.9859 8.16666 15.4343 8.16666 14.8629L8.16669 12.25C8.16669 9.02834 10.7784 6.41667 14 6.41667ZM14 6.41667V3.5M12.8332 24.5H15.1666" stroke="black" stroke-width="2" stroke-linecap="round" stroke-linejoin="round"/>
<rect x="16" y="2" width="12" height="12" rx="6" fill="#EE343B"/>
<path d="M21.9815 7.094C22.4295 7.114 22.7795 7.226 23.0315 7.43C23.2875 7.634 23.4155 7.922 23.4155 8.294C23.4155 8.55 23.3535 8.776 23.2295 8.972C23.1095 9.168 22.9355 9.32 22.7075 9.428C22.4795 9.532 22.2115 9.584 21.9035 9.584C21.6035 9.584 21.3255 9.532 21.0695 9.428C20.8175 9.32 20.5995 9.164 20.4155 8.96L20.7335 8.618C21.0495 8.946 21.4375 9.11 21.8975 9.11C22.2135 9.11 22.4575 9.036 22.6295 8.888C22.8015 8.74 22.8875 8.538 22.8875 8.282C22.8875 8.018 22.7855 7.822 22.5815 7.694C22.3815 7.562 22.0555 7.496 21.6035 7.496H21.3575V7.136L22.6475 5.768H20.6315V5.3H23.2655V5.732L21.9815 7.094Z" fill="white"/>
</svg>
