<svg width="28" height="29" viewBox="0 0 28 29" fill="none" xmlns="http://www.w3.org/2000/svg">
<path d="M14 1.375C6.76288 1.375 0.875 7.26288 0.875 14.5C0.875 21.7371 6.76288 27.625 14 27.625C21.2371 27.625 27.125 21.7371 27.125 14.5C27.125 7.26288 21.2371 1.375 14 1.375ZM14 25.875C7.728 25.875 2.625 20.772 2.625 14.5C2.625 8.228 7.728 3.125 14 3.125C20.272 3.125 25.375 8.228 25.375 14.5C25.375 20.772 20.272 25.875 14 25.875Z" fill="black"/>
<path d="M20.4023 9.48661L11.6488 17.6766L7.59846 13.8861C7.24583 13.5562 6.69283 13.5746 6.36208 13.9272C6.03221 14.2799 6.05058 14.8337 6.40321 15.1636L11.0521 19.5132C11.2201 19.6707 11.4353 19.7495 11.6497 19.7495C11.8641 19.7495 12.0793 19.6707 12.2473 19.5132L21.5993 10.7632C21.952 10.4334 21.9703 9.87949 21.6405 9.52686C21.3088 9.17424 20.7541 9.15586 20.4023 9.48661Z" fill="black"/>
</svg>
