<svg width="40" height="40" viewBox="0 0 40 40" fill="none" xmlns="http://www.w3.org/2000/svg">
<rect width="40" height="40" rx="20" fill="#F1F2F4"/>
<path d="M20.0144 12.4603C23.521 12.4603 26.3636 15.3029 26.3636 18.8095V21.6535C26.3636 22.2754 26.5919 22.8758 27.0051 23.3407L28.625 25.1632C29.7169 26.3915 28.8449 28.3333 27.2013 28.3333H12.8274C11.1839 28.3333 10.3119 26.3915 11.4038 25.1632L13.0237 23.3407C13.4369 22.8758 13.6652 22.2754 13.6652 21.6535L13.6652 18.8095C13.6652 15.3029 16.5079 12.4603 20.0144 12.4603ZM20.0144 12.4603V9.28571M18.7444 32.1428H21.2841" stroke="#042F46" stroke-width="2" stroke-linecap="round" stroke-linejoin="round"/>
<rect x="21.8574" y="7.71429" width="11.4286" height="11.4286" rx="5.71429" fill="#EE343B"/>
<path d="M29.1025 14.3544C29.1025 14.883 28.8512 15.3413 28.3486 15.7294C27.7731 16.1747 26.9736 16.4273 25.9502 16.4872L25.8447 15.8348C26.5296 15.7906 27.0713 15.6512 27.4697 15.4169C27.8838 15.1773 28.0908 14.8687 28.0908 14.4911C28.0908 13.8713 27.5101 13.5614 26.3486 13.5614L26.4307 12.9325C26.8604 12.9325 27.2106 12.8596 27.4814 12.7137C27.7549 12.5653 27.8916 12.3765 27.8916 12.1473C27.8916 11.7307 27.5661 11.5223 26.915 11.5223C26.6234 11.5223 26.3643 11.5458 26.1377 11.5927L26.208 10.87C26.3903 10.8049 26.7627 10.7723 27.3252 10.7723C27.8174 10.7723 28.1963 10.8726 28.4619 11.0731C28.7067 11.2632 28.8291 11.5197 28.8291 11.8427C28.8291 12.0979 28.7367 12.3322 28.5518 12.5458C28.3825 12.7411 28.1755 12.8778 27.9307 12.9559V13.0145C28.277 13.0718 28.5583 13.2216 28.7744 13.4637C28.9932 13.7059 29.1025 14.0028 29.1025 14.3544Z" fill="#F1F2F4"/>
</svg>
