<svg width="28" height="28" viewBox="0 0 28 28" fill="none" xmlns="http://www.w3.org/2000/svg">
<path d="M14.8167 3.20833C14.705 3.10219 14.5724 3.02051 14.4273 2.9685C14.2823 2.91649 14.128 2.8953 13.9743 2.90628C13.8206 2.91726 13.6709 2.96017 13.5347 3.03226C13.3985 3.10436 13.2788 3.20406 13.1834 3.325C13.0304 3.49879 12.9327 3.71415 12.9025 3.94366C12.8724 4.17318 12.9112 4.40648 13.014 4.61388C13.1168 4.82128 13.279 4.99341 13.4799 5.10835C13.6809 5.2233 13.9115 5.27587 14.1424 5.25938C14.3733 5.24288 14.594 5.15807 14.7766 5.01574C14.9592 4.8734 15.0952 4.67997 15.1675 4.46006C15.2399 4.24015 15.2451 4.0037 15.1826 3.7808C15.1201 3.5579 14.9928 3.35863 14.8167 3.20833Z" fill="black"/>
<path d="M18.3747 4.9C18.1508 5.15549 18.0374 5.48931 18.0593 5.82827C18.0812 6.16724 18.2365 6.48371 18.4913 6.70833C18.6139 6.86037 18.7683 6.98381 18.9435 7.07002C19.1188 7.15623 19.3107 7.20315 19.506 7.20748C19.7013 7.21181 19.8951 7.17346 20.074 7.0951C20.2529 7.01674 20.4126 6.90027 20.5418 6.75382C20.671 6.60736 20.7667 6.43446 20.8222 6.2472C20.8776 6.05993 20.8915 5.86281 20.8629 5.6696C20.8343 5.4764 20.7639 5.29177 20.6565 5.12861C20.5491 4.96546 20.4075 4.82771 20.2413 4.725C20.1098 4.60836 19.9557 4.51998 19.7887 4.46535C19.6216 4.41071 19.445 4.39099 19.27 4.4074C19.095 4.42381 18.9252 4.476 18.7712 4.56073C18.6172 4.64547 18.4822 4.76094 18.3747 4.9Z" fill="black"/>
<path d="M24.4413 11.2C24.636 10.9611 24.7564 10.6704 24.7875 10.3637C24.8186 10.0571 24.759 9.74811 24.6162 9.47501C24.4734 9.2019 24.2536 8.9767 23.984 8.82729C23.7145 8.67789 23.407 8.61086 23.0997 8.63449C22.7924 8.65813 22.4988 8.7714 22.2553 8.96027C22.0118 9.14914 21.829 9.40532 21.7296 9.69705C21.6302 9.98879 21.6187 10.3033 21.6963 10.6015C21.7739 10.8998 21.9373 11.1687 22.1663 11.375C22.3248 11.5178 22.5107 11.6269 22.7127 11.6957C22.9147 11.7645 23.1286 11.7916 23.3413 11.7752C23.5541 11.7588 23.7613 11.6994 23.9504 11.6005C24.1394 11.5017 24.3065 11.3654 24.4413 11.2Z" fill="black"/>
<path d="M24.4996 16.1C24.3031 15.8893 24.0643 15.7226 23.7987 15.6108C23.5332 15.499 23.247 15.4446 22.959 15.4514C22.6709 15.4581 22.3876 15.5257 22.1275 15.6497C21.8675 15.7737 21.6366 15.9514 21.4502 16.171C21.2637 16.3907 21.1258 16.6473 21.0456 16.924C20.9654 17.2007 20.9446 17.4913 20.9847 17.7766C21.0248 18.0619 21.1248 18.3355 21.2782 18.5794C21.4316 18.8233 21.6349 19.0319 21.8746 19.1917C22.2911 19.4691 22.795 19.5839 23.2906 19.5143C23.7862 19.4446 24.239 19.1954 24.5629 18.8139C24.8868 18.4324 25.0593 17.9452 25.0476 17.4449C25.036 16.9446 24.841 16.466 24.4996 16.1Z" fill="black"/>
<path d="M15.2246 21.6417C14.8839 22.0355 14.6681 22.5218 14.6046 23.0386C14.541 23.5554 14.6326 24.0795 14.8677 24.5441C15.1028 25.0087 15.4708 25.3929 15.9249 25.6478C16.3789 25.9028 16.8986 26.0169 17.4176 25.9757C17.9367 25.9345 18.4318 25.7398 18.84 25.4165C19.2482 25.0931 19.5509 24.6557 19.7098 24.1598C19.8687 23.6639 19.8765 23.132 19.7322 22.6316C19.5879 22.1313 19.2981 21.6852 18.8996 21.35C18.6415 21.1228 18.3404 20.9497 18.0142 20.8411C17.6879 20.7324 17.3431 20.6905 17.0003 20.7177C16.6576 20.7449 16.3237 20.8407 16.0187 20.9994C15.7136 21.1582 15.4436 21.3766 15.2246 21.6417Z" fill="black"/>
<path d="M5.77476 20.0083C5.27394 20.6005 5.02416 21.3648 5.07864 22.1385C5.13313 22.9121 5.48756 23.6339 6.06643 24.15C6.50322 24.5243 7.04094 24.7611 7.61195 24.8306C8.18296 24.9 8.76176 24.7991 9.27557 24.5405C9.78938 24.2819 10.2153 23.8771 10.4996 23.3771C10.784 22.8771 10.9141 22.3042 10.8737 21.7304C10.8333 21.1566 10.6241 20.6075 10.2725 20.1523C9.92088 19.6971 9.44249 19.356 8.8975 19.1719C8.35252 18.9879 7.76528 18.9691 7.20965 19.1179C6.65401 19.2667 6.15479 19.5765 5.77476 20.0083Z" fill="black"/>
<path d="M4.5078 16.1257C6.27971 15.9839 7.60122 14.4326 7.45947 12.6607C7.31771 10.8888 5.76638 9.56725 3.99447 9.709C2.22255 9.85075 0.901046 11.4021 1.0428 13.174C1.18455 14.9459 2.73589 16.2674 4.5078 16.1257Z" fill="black"/>
</svg>
