<svg width="92" height="92" viewBox="0 0 92 92" fill="none" xmlns="http://www.w3.org/2000/svg">
<circle cx="46" cy="46" r="46" fill="white"/>
<circle cx="46.4137" cy="33.1569" r="12.9264" fill="#574D90"/>
<path fill-rule="evenodd" clip-rule="evenodd" d="M25.9102 64.0566C25.9067 63.1479 26.11 62.2503 26.5045 61.4317C27.7427 58.9554 31.2343 57.6429 34.1316 57.0486C36.2211 56.6027 38.3395 56.3048 40.471 56.1571C44.4172 55.8105 48.3863 55.8105 52.3325 56.1571C54.4638 56.3065 56.5821 56.6044 58.6719 57.0486C61.5692 57.6429 65.0608 58.8315 66.299 61.4317C67.0924 63.1003 67.0924 65.0376 66.299 66.7062C65.0608 69.3064 61.5692 70.495 58.6719 71.0646C56.5848 71.5289 54.4657 71.8352 52.3325 71.9808C49.1206 72.2531 45.8937 72.3027 42.6749 72.1294C41.932 72.1294 41.2139 72.1294 40.471 71.9808C38.3458 71.837 36.2347 71.5307 34.1563 71.0646C31.2343 70.495 27.7674 69.3064 26.5045 66.7062C26.112 65.8782 25.9089 64.973 25.9102 64.0566Z" fill="#574D90"/>
</svg>
