<svg width="64" height="64" viewBox="0 0 64 64" fill="none" xmlns="http://www.w3.org/2000/svg">
<rect x="1" y="1" width="62" height="62" rx="31" fill="white" stroke="#6856E2" stroke-width="2"/>
<mask id="mask0_53_7371" style="mask-type:alpha" maskUnits="userSpaceOnUse" x="14" y="14" width="36" height="36">
<rect x="14.7693" y="14.769" width="34.4615" height="34.4615" fill="#D9D9D9"/>
</mask>
<g mask="url(#mask0_53_7371)">
<path d="M16.2052 43.4871V39.4665C16.2052 38.6529 16.4146 37.905 16.8334 37.2229C17.2522 36.5409 17.8086 36.0204 18.5026 35.6614C19.9864 34.9195 21.4941 34.3631 23.0257 33.9922C24.5573 33.6212 26.1129 33.4358 27.6924 33.4358C29.2719 33.4358 30.8274 33.6212 32.359 33.9922C33.8907 34.3631 35.3984 34.9195 36.8821 35.6614C37.5761 36.0204 38.1325 36.5409 38.5514 37.2229C38.9702 37.905 39.1796 38.6529 39.1796 39.4665V43.4871H16.2052ZM42.0514 43.4871V39.1794C42.0514 38.1264 41.7582 37.1153 41.1719 36.146C40.5855 35.1768 39.7539 34.3452 38.677 33.6512C39.8975 33.7947 41.0462 34.04 42.1231 34.3871C43.2001 34.7341 44.2052 35.1588 45.1385 35.6614C46.0001 36.14 46.6582 36.6725 47.1129 37.2588C47.5676 37.8452 47.7949 38.4853 47.7949 39.1794V43.4871H42.0514ZM27.6924 31.9999C26.1129 31.9999 24.7608 31.4375 23.636 30.3127C22.5112 29.1879 21.9488 27.8358 21.9488 26.2563C21.9488 24.6768 22.5112 23.3247 23.636 22.1999C24.7608 21.0751 26.1129 20.5127 27.6924 20.5127C29.2719 20.5127 30.624 21.0751 31.7488 22.1999C32.8736 23.3247 33.436 24.6768 33.436 26.2563C33.436 27.8358 32.8736 29.1879 31.7488 30.3127C30.624 31.4375 29.2719 31.9999 27.6924 31.9999ZM42.0514 26.2563C42.0514 27.8358 41.489 29.1879 40.3642 30.3127C39.2394 31.4375 37.8873 31.9999 36.3078 31.9999C36.0445 31.9999 35.7095 31.97 35.3026 31.9101C34.8958 31.8503 34.5608 31.7845 34.2975 31.7127C34.9437 30.9469 35.4402 30.0973 35.7873 29.164C36.1343 28.2306 36.3078 27.2614 36.3078 26.2563C36.3078 25.2512 36.1343 24.2819 35.7873 23.3486C35.4402 22.4153 34.9437 21.5657 34.2975 20.7999C34.6325 20.6802 34.9676 20.6024 35.3026 20.5665C35.6377 20.5306 35.9727 20.5127 36.3078 20.5127C37.8873 20.5127 39.2394 21.0751 40.3642 22.1999C41.489 23.3247 42.0514 24.6768 42.0514 26.2563ZM19.077 40.6153H36.3078V39.4665C36.3078 39.2033 36.242 38.964 36.1103 38.7486C35.9787 38.5332 35.8052 38.3657 35.5898 38.246C34.2975 37.5999 32.9932 37.1153 31.677 36.7922C30.3608 36.4691 29.0325 36.3076 27.6924 36.3076C26.3522 36.3076 25.024 36.4691 23.7078 36.7922C22.3915 37.1153 21.0873 37.5999 19.7949 38.246C19.5796 38.3657 19.4061 38.5332 19.2744 38.7486C19.1428 38.964 19.077 39.2033 19.077 39.4665V40.6153ZM27.6924 29.1281C28.4821 29.1281 29.1582 28.8469 29.7206 28.2845C30.283 27.7221 30.5642 27.046 30.5642 26.2563C30.5642 25.4665 30.283 24.7905 29.7206 24.2281C29.1582 23.6657 28.4821 23.3845 27.6924 23.3845C26.9026 23.3845 26.2266 23.6657 25.6642 24.2281C25.1018 24.7905 24.8206 25.4665 24.8206 26.2563C24.8206 27.046 25.1018 27.7221 25.6642 28.2845C26.2266 28.8469 26.9026 29.1281 27.6924 29.1281Z" fill="#737373"/>
</g>
</svg>
