<svg width="318" height="274" viewBox="0 0 318 274" fill="none" xmlns="http://www.w3.org/2000/svg">
<mask id="path-1-inside-1_16_284" fill="white">
<path d="M271.137 273.137C288.907 255.367 302.241 233.662 310.059 209.779C317.878 185.896 319.961 160.507 316.139 135.669C312.318 110.831 302.699 87.2429 288.063 66.8147C273.427 46.3865 254.185 29.693 231.896 18.0867C209.607 6.48033 184.897 0.287469 159.768 0.00976933C134.639 -0.267931 109.799 5.37734 87.2583 16.4883C64.7179 27.5992 45.1116 43.8633 30.0277 63.9631C14.9438 84.0629 4.80653 107.433 0.437093 132.18L15.5225 134.844C19.4736 112.466 28.6403 91.3332 42.28 73.1579C55.9197 54.9825 73.6489 40.2755 94.0313 30.2284C114.414 20.1812 136.876 15.0764 159.599 15.3276C182.322 15.5787 204.666 21.1786 224.821 31.6738C244.976 42.1689 262.376 57.2641 275.611 75.7364C288.846 94.2088 297.543 115.539 300.999 137.999C304.454 160.459 302.571 183.417 295.501 205.013C288.431 226.609 276.374 246.237 260.305 262.305L271.137 273.137Z"/>
</mask>
<path d="M271.137 273.137C288.907 255.367 302.241 233.662 310.059 209.779C317.878 185.896 319.961 160.507 316.139 135.669C312.318 110.831 302.699 87.2429 288.063 66.8147C273.427 46.3865 254.185 29.693 231.896 18.0867C209.607 6.48033 184.897 0.287469 159.768 0.00976933C134.639 -0.267931 109.799 5.37734 87.2583 16.4883C64.7179 27.5992 45.1116 43.8633 30.0277 63.9631C14.9438 84.0629 4.80653 107.433 0.437093 132.18L15.5225 134.844C19.4736 112.466 28.6403 91.3332 42.28 73.1579C55.9197 54.9825 73.6489 40.2755 94.0313 30.2284C114.414 20.1812 136.876 15.0764 159.599 15.3276C182.322 15.5787 204.666 21.1786 224.821 31.6738C244.976 42.1689 262.376 57.2641 275.611 75.7364C288.846 94.2088 297.543 115.539 300.999 137.999C304.454 160.459 302.571 183.417 295.501 205.013C288.431 226.609 276.374 246.237 260.305 262.305L271.137 273.137Z" stroke="#EA7089" stroke-width="24" mask="url(#path-1-inside-1_16_284)"/>
</svg>
