<svg width="60" height="56" viewBox="0 0 60 56" fill="none" xmlns="http://www.w3.org/2000/svg">
<path d="M48.797 14.7551C48.1555 10.9426 46.2677 7.46329 43.3806 4.82295C40.1727 1.88649 36.0025 0.270203 31.6595 0.270203C28.3035 0.270203 25.0339 1.23257 22.2332 3.04627C19.9013 4.55151 17.9642 6.58729 16.5947 8.98088C16.0025 8.86983 15.3856 8.80814 14.7687 8.80814C9.52498 8.80814 5.25601 13.0771 5.25601 18.3208C5.25601 18.9994 5.33004 19.6533 5.45342 20.2949C2.06046 22.7625 0 26.7353 0 30.9673C0 34.3849 1.27082 37.7039 3.59038 40.3319C5.97162 43.0216 9.11783 44.6132 12.4738 44.7983C12.5108 44.7983 12.5355 44.7983 12.5725 44.7983H23.1832C24.1086 44.7983 24.8489 44.058 24.8489 43.1326C24.8489 42.2073 24.1086 41.467 23.1832 41.467H12.6218C7.57557 41.1585 3.33128 36.359 3.33128 30.955C3.33128 27.4633 5.20666 24.206 8.22949 22.4417C8.93276 22.0345 9.22887 21.1832 8.95743 20.4183C8.71067 19.752 8.58729 19.0487 8.58729 18.2961C8.58729 14.8908 11.3634 12.1147 14.7687 12.1147C15.4966 12.1147 16.2122 12.2381 16.8785 12.4849C17.6928 12.781 18.5935 12.4109 18.9636 11.6336C21.2708 6.73535 26.2554 3.5768 31.6718 3.5768C38.9513 3.5768 44.9599 9.03023 45.6508 16.2603C45.7249 17.013 46.2924 17.6175 47.0327 17.7409C52.5231 18.6786 56.6687 23.7495 56.6687 29.5361C56.6687 35.6681 51.8445 40.9981 45.8976 41.4547H36.8044C35.8791 41.4547 35.1388 42.1949 35.1388 43.1203C35.1388 44.0457 35.8791 44.7859 36.8044 44.7859H45.9593C45.9963 44.7859 46.0333 44.7859 46.0827 44.7859C49.8458 44.5145 53.3621 42.7872 55.9778 39.9001C58.5811 37.0376 60 33.3609 60 29.5361C59.9877 22.6144 55.2622 16.4577 48.797 14.7551Z" fill="#574D90"/>
<path d="M40.0001 32.5465C40.654 31.8926 40.654 30.8439 40.0001 30.1899L31.1784 21.3682C30.8699 21.0598 30.4381 20.8747 30.0062 20.8747C29.5744 20.8747 29.1426 21.0474 28.8341 21.3682L20.0124 30.1899C19.3585 30.8439 19.3585 31.8926 20.0124 32.5465C20.3332 32.8673 20.765 33.04 21.1845 33.04C21.604 33.04 22.0359 32.8796 22.3566 32.5465L28.3406 26.5625V54.0641C28.3406 54.9894 29.0809 55.7297 30.0062 55.7297C30.9316 55.7297 31.6719 54.9894 31.6719 54.0641V26.5625L37.6558 32.5465C38.2974 33.2004 39.3462 33.2004 40.0001 32.5465Z" fill="#574D90"/>
</svg>
